Coordinates
version=1
nRows=24
nColumns=24
inDegrees=yes

Units are S.I. units (second, meters, Newtons, ...)
Angles are in degrees.

endheader
time	pelvis_tilt	pelvis_list	pelvis_rotation	pelvis_tx	pelvis_ty	pelvis_tz	hip_flexion_r	hip_adduction_r	hip_rotation_r	knee_angle_r	ankle_angle_r	subtalar_angle_r	mtp_angle_r	hip_flexion_l	hip_adduction_l	hip_rotation_l	knee_angle_l	ankle_angle_l	subtalar_angle_l	mtp_angle_l	lumbar_extension	lumbar_bending	lumbar_rotation
     26.67000000	      0.40394971	     -3.76801006	   -261.93076654	      0.00254926	      0.08143935	     -1.84845935	     32.47584183	     -4.53427080	    -19.91078658	    -18.07452904	     -8.71444843	     -9.82388373	      1.84702065	    -15.12447157	     -3.36086021	     -4.25830502	    -16.51815299	     10.50211767	      7.57514642	     11.87766586	     -8.71883623	      0.78985134	    -10.76905218
     26.67500000	      0.54148526	     -3.88437607	   -261.94290510	      0.00349255	      0.08123904	     -1.84959637	     32.59523503	     -4.41081406	    -19.75079638	    -18.73638053	     -9.08834981	    -10.62529179	      1.71830950	    -14.91287417	     -3.67895857	     -4.37511717	    -17.30805628	      9.84062446	      7.73446164	     11.94493411	     -8.43341592	      0.88955698	    -10.75985325
     26.68000000	      0.74604975	     -3.94573947	   -262.03498302	      0.00454448	      0.08114066	     -1.85093059	     32.63994063	     -4.12486077	    -19.46052369	    -19.40779690	     -8.92445688	    -11.56719162	      0.17129512	    -14.77522847	     -4.08497132	     -4.72336568	    -18.07331271	      8.68000915	      8.28327434	     14.47891311	     -8.17915615	      1.05118475	    -10.63163671
     26.68500000	      0.91111597	     -4.03411519	   -262.14687074	      0.00569300	      0.08105675	     -1.85224933	     32.77680297	     -3.86103451	    -19.02631418	    -20.22920208	     -8.89091319	    -12.41320351	      0.02235050	    -14.58223299	     -4.42975232	     -4.92288816	    -18.86910311	      7.85979375	      8.46532685	     14.83651875	     -7.90573178	      1.15721387	    -10.48989840
     26.69000000	      1.06514703	     -4.13079138	   -262.29885252	      0.00679858	      0.08101477	     -1.85355049	     32.96934100	     -3.61256221	    -18.64096888	    -21.16243797	     -8.63225013	    -12.97500127	     -1.13881331	    -14.36347592	     -4.78564477	     -5.35881258	    -19.66177508	      6.31958391	      9.11217707	     17.98189141	     -7.64396864	      1.26160503	    -10.35355846
     26.69500000	      1.18461700	     -4.23834422	   -262.47877866	      0.00795190	      0.08099903	     -1.85479762	     33.26319295	     -3.40186300	    -18.20764534	    -22.28610156	     -8.41486613	    -13.30554628	     -1.39254817	    -14.09832674	     -5.09095931	     -5.70339383	    -20.52870433	      5.03148015	      9.52384074	     19.81614016	     -7.35468592	      1.32359369	    -10.15959710
     26.70000000	      1.30586807	     -4.32854099	   -262.68609906	      0.00908220	      0.08110359	     -1.85600702	     33.50650618	     -3.16741651	    -17.76281175	    -23.31511480	     -8.37658683	    -13.56515291	     -1.84028342	    -13.80067801	     -5.39349978	     -6.04995537	    -21.44030180	      3.65673147	      9.91934390	     21.36274219	     -7.10228947	      1.39703036	     -9.95975068
     26.70500000	      1.38267822	     -4.38299667	   -262.89408812	      0.01018413	      0.08127969	     -1.85718181	     33.68443968	     -2.97093013	    -17.37302495	    -24.29392218	     -8.25664056	    -13.61432707	     -2.26972227	    -13.51836437	     -5.62602038	     -6.27520811	    -22.35621846	      2.03513901	      9.94298790	     23.32372342	     -6.89214209	      1.43521316	     -9.76736629
     26.71000000	      1.49375843	     -4.41857563	   -263.11057107	      0.01134370	      0.08154808	     -1.85838189	     33.79624574	     -2.70895947	    -17.02236068	    -25.18387111	     -8.14447464	    -13.88933783	     -2.49234088	    -13.20851274	     -5.94793590	     -6.67453252	    -23.30972106	      0.30041305	     10.40750533	     25.40506456	     -6.71171569	      1.50811157	     -9.57984584
     26.71500000	      1.58235075	     -4.40219800	   -263.36429787	      0.01256344	      0.08194234	     -1.85954429	     33.82774071	     -2.47191763	    -16.83831020	    -26.05992615	     -7.93875237	    -13.95854491	     -2.48873121	    -12.88762381	     -6.24408613	     -7.10778984	    -24.37076549	     -1.48657336	     10.56408073	     27.27392521	     -6.56266650	      1.55170910	     -9.31651564
     26.72000000	      1.66310676	     -4.36006699	   -263.61660942	      0.01380181	      0.08239222	     -1.86072687	     33.75277328	     -2.21835419	    -16.68327057	    -26.81021171	     -7.66000624	    -14.11277767	     -2.53167204	    -12.59183621	     -6.54521336	     -7.46959427	    -25.39219744	     -3.44148015	     10.76982678	     29.15288424	     -6.44947701	      1.59190324	     -9.07451129
     26.72500000	      1.71518062	     -4.27661619	   -263.82634556	      0.01496022	      0.08295132	     -1.86186339	     33.57917643	     -2.03473695	    -16.69116401	    -27.51208807	     -7.13795905	    -14.09405674	     -2.44239343	    -12.25931794	     -6.79278052	     -7.59556725	    -26.50104455	     -5.07003749	     10.66551461	     29.17192355	     -6.38610414	      1.60943702	     -8.86589689
     26.73000000	      1.78069816	     -4.20667979	   -264.04635378	      0.01613489	      0.08355244	     -1.86299517	     33.33144118	     -1.80154779	    -16.67969632	    -28.06740968	     -6.65931577	    -14.04794543	     -1.85859135	    -11.83332574	     -7.09835857	     -7.93291047	    -27.70624486	     -7.30254322	     10.65645006	     31.84531097	     -6.29592189	      1.64910608	     -8.72263516
     26.73500000	      1.87157582	     -4.05740476	   -264.30263289	      0.01744604	      0.08427551	     -1.86408400	     32.94265476	     -1.47377075	    -16.58709801	    -28.52485305	     -5.96409654	    -14.01491180	     -1.74649352	    -11.46521592	     -7.44374356	     -8.23014719	    -28.95771373	     -9.05539213	     10.48202694	     31.64191052	     -6.29829929	      1.69494388	     -8.43672077
     26.74000000	      1.93674001	     -3.91743068	   -264.53242976	      0.01873101	      0.08506281	     -1.86509675	     32.50295676	     -1.18451243	    -16.58044419	    -28.89803117	     -5.34009139	    -13.85875765	     -1.39024435	    -10.99073210	     -7.78122028	     -8.52600666	    -30.32748142	    -11.21783402	     10.22917563	     33.33607830	     -6.30388286	      1.70629849	     -8.16444328
     26.74500000	      2.02101167	     -3.75419761	   -264.74596817	      0.02002232	      0.08585363	     -1.86604209	     32.00819509	     -0.87710961	    -16.57846844	    -29.21000828	     -4.68197665	    -13.80073712	     -1.24739331	    -10.51013831	     -8.15131254	     -8.70961685	    -31.76995590	    -13.01122080	      9.92327520	     33.02071427	     -6.32652001	      1.74234592	     -7.94264157
     26.75000000	      2.13784022	     -3.56537298	   -264.93399597	      0.02133274	      0.08673398	     -1.86694558	     31.41019251	     -0.54821313	    -16.68926427	    -29.38794271	     -4.06984440	    -13.66259788	     -1.06057164	    -10.00482957	     -8.58968869	     -8.92219205	    -33.27094641	    -14.73682433	      9.53104640	     32.71110972	     -6.37727176	      1.79902063	     -7.71887068
     26.75500000	      2.23035526	     -3.37727048	   -265.12515170	      0.02263947	      0.08763358	     -1.86773947	     30.78297087	     -0.24067810	    -16.77029415	    -29.50663351	     -3.44753692	    -13.46359061	     -0.82768804	     -9.47166616	     -8.99490917	     -9.09807498	    -34.77994759	    -16.49157040	      9.03549751	     32.32712432	     -6.44371609	      1.83014250	     -7.47651723
     26.76000000	      2.35380196	     -3.19813604	   -265.26645047	      0.02390882	      0.08852674	     -1.86830562	     30.14689130	      0.06286798	    -16.95327386	    -29.57006147	     -2.91540807	    -13.23555072	     -0.48153822	     -8.83126764	     -9.44817910	     -9.21817157	    -36.39787326	    -18.17165844	      8.32947462	     31.76721798	     -6.52405962	      1.89000908	     -7.27095289
     26.76500000	      2.54733842	     -3.05825667	   -265.34286667	      0.02506135	      0.08932630	     -1.86857093	     29.51463698	      0.42569026	    -17.12499614	    -29.50723508	     -2.55619529	    -12.97888085	      0.78702665	     -8.02358125	     -9.97139658	     -9.16080825	    -38.15157991	    -19.45195608	      7.65761421	     29.51033975	     -6.58911419	      2.03052892	     -7.12444162
     26.77000000	      2.70089120	     -2.84350157	   -265.52030090	      0.02641038	      0.09042552	     -1.86935096	     28.69535268	      0.84320047	    -17.15783382	    -29.29947566	     -2.09933936	    -12.87412551	      0.88723853	     -7.47444429	    -10.44546882	     -9.27177292	    -39.61226901	    -21.21312115	      6.97319850	     29.04796216	     -6.67590766	      2.10967618	     -6.89517620
     26.77500000	      2.85942885	     -2.68666056	   -265.60483943	      0.02756721	      0.09143809	     -1.86971394	     27.97643072	      1.19988093	    -17.25826329	    -29.13497109	     -1.59670611	    -12.78834000	      1.03288032	     -6.71994287	    -10.90640151	     -9.20771031	    -41.20697947	    -22.84817478	      5.97527499	     28.35179996	     -6.75147714	      2.19929914	     -6.69626761
     26.78000000	      3.03597929	     -2.54617625	   -265.72105392	      0.02876656	      0.09249716	     -1.86998646	     27.23953026	      1.62447236	    -17.24661340	    -28.85665580	     -1.23667296	    -12.67496034	      1.52460514	     -5.92144505	    -11.35615585	     -9.11757396	    -42.79248007	    -24.01072093	      4.86190409	     25.06432859	     -6.81677263	      2.30716663	     -6.49276489
     26.78500000	      3.23737283	     -2.40776365	   -265.75754611	      0.02977745	      0.09361431	     -1.87011628	     26.46967981	      2.05101700	    -17.28463253	    -28.47848010	     -0.92474522	    -12.76539712	      1.58497842	     -5.05869642	    -11.82596581	     -8.92863332	    -44.35965615	    -25.76134318	      3.80159551	     24.55872341	     -6.89811996	      2.44888366	     -6.33733050
